<svg width="124" height="65" viewBox="0 0 124 65" fill="none" xmlns="http://www.w3.org/2000/svg">
<path d="M96.9166 22.3542H121.083V24.7708H96.9166V22.3542Z" fill="#555B6E"/>
<path d="M113.56 8.6861C113.56 8.6861 107.228 4.35785 106.025 4.24548C104.822 4.13431 103.562 4.62369 103.562 4.62369L108.58 10.0437L113.56 8.6861Z" fill="#7986CB"/>
<path d="M95.7084 7.24999L99.4778 12.6821L102.92 10.1669L97.5209 6.64583L95.7084 7.24999Z" fill="#3F51B5"/>
<path d="M101.442 10.4418C101.442 10.4418 111.95 6.65128 114.834 5.75107C118.296 4.67203 121.492 6.13472 121.688 6.76124C121.868 7.33701 120.948 8.27347 117.247 9.42863C113.547 10.5832 106.163 13.3998 106.163 13.3998C106.163 13.3998 100.853 15.0673 96.3125 12.6875C99.5267 11.1572 101.442 10.4418 101.442 10.4418Z" fill="#9FA8DA"/>
<path d="M113.954 10.6104C113.806 11.4514 110.503 17.7486 109.513 18.4422C108.523 19.1352 107.188 19.3333 107.188 19.3333C108.723 13.0869 108.746 13.0917 108.955 11.8979C109.103 11.0563 114.103 9.76938 113.954 10.6104Z" fill="#9FA8DA"/>
<path d="M120.659 6.01145C120.192 5.80483 119.583 5.61874 118.887 5.49851L119.183 6.46397L120.659 6.01145ZM117.097 5.83866L118.253 5.48462L118.607 6.64099L117.451 6.99504L117.097 5.83866Z" fill="#283593"/>
<path d="M106.321 10.7312C106.321 10.8914 106.385 11.0451 106.498 11.1584C106.611 11.2717 106.765 11.3354 106.925 11.3354C107.086 11.3354 107.239 11.2717 107.353 11.1584C107.466 11.0451 107.53 10.8914 107.53 10.7312C107.53 10.571 107.466 10.4173 107.353 10.304C107.239 10.1907 107.086 10.127 106.925 10.127C106.765 10.127 106.611 10.1907 106.498 10.304C106.385 10.4173 106.321 10.571 106.321 10.7312Z" fill="#283593"/>
<path d="M108.604 9.93914C108.604 10.0994 108.667 10.253 108.781 10.3664C108.894 10.4797 109.048 10.5433 109.208 10.5433C109.368 10.5433 109.522 10.4797 109.635 10.3664C109.748 10.253 109.812 10.0994 109.812 9.93914C109.812 9.77891 109.748 9.62524 109.635 9.51193C109.522 9.39863 109.368 9.33498 109.208 9.33498C109.048 9.33498 108.894 9.39863 108.781 9.51193C108.667 9.62524 108.604 9.77891 108.604 9.93914Z" fill="#283593"/>
<path d="M112.061 8.94772C112.114 9.09907 112.105 9.26515 112.035 9.40955C111.965 9.55396 111.842 9.66489 111.69 9.71803C111.539 9.77012 111.372 9.76002 111.228 9.68995C111.084 9.61987 110.973 9.49552 110.92 9.34405C110.868 9.19269 110.878 9.02685 110.947 8.88274C111.017 8.73864 111.141 8.62799 111.292 8.57494C111.444 8.52267 111.61 8.53255 111.754 8.60242C111.898 8.6723 112.008 8.79646 112.061 8.94772Z" fill="#283593"/>
<path d="M113.171 8.35382C113.171 8.43316 113.186 8.51172 113.217 8.58502C113.247 8.65832 113.291 8.72492 113.347 8.78103C113.404 8.83713 113.47 8.88163 113.543 8.91199C113.617 8.94235 113.695 8.95798 113.775 8.95798C113.854 8.95798 113.933 8.94235 114.006 8.91199C114.079 8.88163 114.146 8.83713 114.202 8.78103C114.258 8.72492 114.303 8.65832 114.333 8.58502C114.363 8.51172 114.379 8.43316 114.379 8.35382C114.379 8.27448 114.363 8.19591 114.333 8.12261C114.303 8.04931 114.258 7.98271 114.202 7.92661C114.146 7.8705 114.079 7.826 114.006 7.79564C113.933 7.76528 113.854 7.74965 113.775 7.74965C113.695 7.74965 113.617 7.76528 113.543 7.79564C113.47 7.826 113.404 7.8705 113.347 7.92661C113.291 7.98271 113.247 8.04931 113.217 8.12261C113.186 8.19591 113.171 8.27448 113.171 8.35382Z" fill="#283593"/>
<path d="M12.276 57C11.5933 57 11.092 56.648 10.772 55.944L1.396 34.504C1.09733 33.7787 1.06533 33.1813 1.3 32.712C1.53467 32.2427 1.98267 32.008 2.644 32.008C3.39067 32.008 3.90267 32.3387 4.18 33L12.404 52.744H12.052L20.436 33C20.6067 32.616 20.7987 32.36 21.012 32.232C21.2467 32.0827 21.556 32.008 21.94 32.008C22.58 32.008 23.0173 32.2427 23.252 32.712C23.508 33.16 23.508 33.6613 23.252 34.216L13.78 55.944C13.6307 56.2853 13.428 56.552 13.172 56.744C12.9373 56.9147 12.6387 57 12.276 57ZM34.212 57.32C32.3347 57.32 30.6173 57.0107 29.06 56.392C27.5027 55.752 26.1587 54.8667 25.028 53.736C23.9187 52.584 23.0547 51.2293 22.436 49.672C21.8173 48.0933 21.508 46.3653 21.508 44.488C21.508 42.6107 21.8173 40.8933 22.436 39.336C23.0547 37.7787 23.9187 36.4347 25.028 35.304C26.1587 34.152 27.5027 33.2667 29.06 32.648C30.6173 32.008 32.3347 31.688 34.212 31.688C36.0893 31.688 37.796 32.008 39.332 32.648C40.8893 33.2667 42.2333 34.152 43.364 35.304C44.4947 36.4347 45.3693 37.7787 45.988 39.336C46.6067 40.8933 46.916 42.6107 46.916 44.488C46.916 46.3653 46.6067 48.0933 45.988 49.672C45.3693 51.2293 44.4947 52.584 43.364 53.736C42.2333 54.8667 40.8893 55.752 39.332 56.392C37.796 57.0107 36.0893 57.32 34.212 57.32ZM34.212 54.312C35.5987 54.312 36.868 54.0667 38.02 53.576C39.1933 53.064 40.2067 52.3707 41.06 51.496C41.9133 50.6 42.564 49.5547 43.012 48.36C43.4813 47.1653 43.716 45.8747 43.716 44.488C43.716 43.1013 43.4813 41.8107 43.012 40.616C42.564 39.4213 41.9133 38.3867 41.06 37.512C40.2067 36.616 39.1933 35.9227 38.02 35.432C36.868 34.9413 35.5987 34.696 34.212 34.696C32.8253 34.696 31.5453 34.9413 30.372 35.432C29.22 35.9227 28.2173 36.616 27.364 37.512C26.532 38.3867 25.8813 39.4213 25.412 40.616C24.9427 41.8107 24.708 43.1013 24.708 44.488C24.708 45.8747 24.9427 47.1653 25.412 48.36C25.8813 49.5547 26.532 50.6 27.364 51.496C28.2173 52.3707 29.22 53.064 30.372 53.576C31.5453 54.0667 32.8253 54.312 34.212 54.312ZM55.2955 57C54.8475 57 54.4635 56.84 54.1435 56.52C53.8235 56.2 53.6635 55.8053 53.6635 55.336V47.88L45.1195 34.6C44.8422 34.152 44.7355 33.736 44.7995 33.352C44.8635 32.9467 45.0448 32.6267 45.3435 32.392C45.6635 32.136 46.0262 32.008 46.4315 32.008C46.7942 32.008 47.0822 32.0933 47.2955 32.264C47.5088 32.4133 47.7115 32.6373 47.9035 32.936L56.0315 45.832H54.7515L63.0075 32.808C63.1782 32.552 63.3808 32.36 63.6155 32.232C63.8502 32.0827 64.1382 32.008 64.4795 32.008C64.8635 32.008 65.1835 32.1467 65.4395 32.424C65.6955 32.68 65.8448 33.0107 65.8875 33.416C65.9302 33.8 65.8235 34.1947 65.5675 34.6L56.9595 47.88V55.336C56.9595 55.8053 56.7995 56.2 56.4795 56.52C56.1595 56.84 55.7648 57 55.2955 57ZM62.0255 57C61.4282 57 60.9695 56.744 60.6495 56.232C60.3295 55.72 60.2975 55.176 60.5535 54.6L69.5455 33.128C69.8655 32.3813 70.3882 32.008 71.1135 32.008C71.8815 32.008 72.4042 32.3813 72.6815 33.128L81.7055 54.664C81.9402 55.2613 81.8975 55.8053 81.5775 56.296C81.2788 56.7653 80.8202 57 80.2015 57C79.8815 57 79.5722 56.9147 79.2735 56.744C78.9962 56.552 78.7935 56.296 78.6655 55.976L70.7295 36.264H71.6255L63.5615 55.976C63.4122 56.3173 63.1882 56.5733 62.8895 56.744C62.6122 56.9147 62.3242 57 62.0255 57ZM63.7215 51.496L65.0015 48.744H77.5455L78.8255 51.496H63.7215ZM93.0525 57.32C91.3245 57.32 89.7032 57 88.1885 56.36C86.6952 55.6987 85.3832 54.792 84.2525 53.64C83.1432 52.4667 82.2685 51.1013 81.6285 49.544C81.0098 47.9867 80.7005 46.3013 80.7005 44.488C80.7005 42.696 81.0098 41.032 81.6285 39.496C82.2685 37.9387 83.1432 36.584 84.2525 35.432C85.3832 34.2587 86.6952 33.3413 88.1885 32.68C89.6818 32.0187 91.3032 31.688 93.0525 31.688C94.6952 31.688 96.1032 31.9013 97.2765 32.328C98.4712 32.7547 99.6658 33.4587 100.86 34.44C101.031 34.568 101.159 34.7067 101.244 34.856C101.351 34.984 101.415 35.1227 101.436 35.272C101.479 35.4 101.5 35.56 101.5 35.752C101.5 36.1573 101.351 36.4987 101.052 36.776C100.775 37.0533 100.423 37.2027 99.9965 37.224C99.5912 37.2453 99.2072 37.1067 98.8445 36.808C98.0552 36.1253 97.2338 35.6027 96.3805 35.24C95.5485 34.8773 94.4392 34.696 93.0525 34.696C91.7938 34.696 90.6098 34.952 89.5005 35.464C88.3912 35.976 87.4098 36.68 86.5565 37.576C85.7245 38.472 85.0738 39.5173 84.6045 40.712C84.1352 41.8853 83.9005 43.144 83.9005 44.488C83.9005 45.8533 84.1352 47.1333 84.6045 48.328C85.0738 49.5013 85.7245 50.536 86.5565 51.432C87.4098 52.328 88.3912 53.032 89.5005 53.544C90.6098 54.0347 91.7938 54.28 93.0525 54.28C94.1405 54.28 95.1645 54.0987 96.1245 53.736C97.1058 53.352 98.0445 52.8293 98.9405 52.168C99.3245 51.8907 99.6978 51.7733 100.06 51.816C100.444 51.8373 100.764 51.9867 101.02 52.264C101.276 52.52 101.404 52.8827 101.404 53.352C101.404 53.5653 101.362 53.7787 101.276 53.992C101.212 54.184 101.084 54.3653 100.892 54.536C99.7618 55.4747 98.5352 56.1787 97.2125 56.648C95.8898 57.096 94.5032 57.32 93.0525 57.32ZM101.404 53.352L98.2045 52.712V46.984H93.7885C93.3192 46.984 92.9245 46.8453 92.6045 46.568C92.2845 46.2907 92.1245 45.9387 92.1245 45.512C92.1245 45.0853 92.2845 44.7333 92.6045 44.456C92.9245 44.1787 93.3192 44.04 93.7885 44.04H99.7725C100.263 44.04 100.658 44.2 100.956 44.52C101.255 44.8187 101.404 45.2133 101.404 45.704V53.352ZM105.352 57C104.882 57 104.488 56.84 104.168 56.52C103.848 56.2 103.688 55.8053 103.688 55.336V33.672C103.688 33.1813 103.848 32.7867 104.168 32.488C104.488 32.168 104.882 32.008 105.352 32.008H119.816C120.306 32.008 120.701 32.1573 121 32.456C121.298 32.7333 121.448 33.1067 121.448 33.576C121.448 34.024 121.298 34.3867 121 34.664C120.701 34.9413 120.306 35.08 119.816 35.08H107.016V42.856H116.2C116.69 42.856 117.085 43.0053 117.384 43.304C117.682 43.5813 117.832 43.944 117.832 44.392C117.832 44.84 117.682 45.2133 117.384 45.512C117.085 45.7893 116.69 45.928 116.2 45.928H107.016V53.928H119.816C120.306 53.928 120.701 54.0667 121 54.344C121.298 54.6213 121.448 54.984 121.448 55.432C121.448 55.9013 121.298 56.2853 121 56.584C120.701 56.8613 120.306 57 119.816 57H105.352Z" fill="#555B6E"/>
</svg>
