<svg width="123" height="65" viewBox="0 0 123 65" fill="none" xmlns="http://www.w3.org/2000/svg">
<path d="M96.4167 22.3542H120.583V24.7708H96.4167V22.3542Z" fill="#555B6E"/>
<path d="M113.06 8.6861C113.06 8.6861 106.728 4.35785 105.525 4.24548C104.322 4.13431 103.062 4.62369 103.062 4.62369L108.08 10.0437L113.06 8.6861Z" fill="#7986CB"/>
<path d="M95.2083 7.24999L98.9777 12.6821L102.42 10.1669L97.0208 6.64583L95.2083 7.24999Z" fill="#3F51B5"/>
<path d="M100.942 10.4418C100.942 10.4418 111.45 6.65128 114.334 5.75107C117.796 4.67203 120.992 6.13472 121.188 6.76124C121.368 7.33701 120.448 8.27347 116.747 9.42863C113.047 10.5832 105.663 13.3998 105.663 13.3998C105.663 13.3998 100.353 15.0673 95.8125 12.6875C99.0267 11.1572 100.942 10.4418 100.942 10.4418Z" fill="#9FA8DA"/>
<path d="M113.454 10.6104C113.306 11.4514 110.003 17.7486 109.013 18.4422C108.023 19.1352 106.688 19.3333 106.688 19.3333C108.223 13.0869 108.246 13.0917 108.455 11.8979C108.603 11.0563 113.603 9.76938 113.454 10.6104Z" fill="#9FA8DA"/>
<path d="M120.159 6.01145C119.692 5.80483 119.083 5.61874 118.387 5.49851L118.683 6.46397L120.159 6.01145ZM116.597 5.83866L117.753 5.48462L118.107 6.64099L116.951 6.99504L116.597 5.83866Z" fill="#283593"/>
<path d="M105.821 10.7312C105.821 10.8914 105.885 11.0451 105.998 11.1584C106.111 11.2717 106.265 11.3354 106.425 11.3354C106.586 11.3354 106.739 11.2717 106.852 11.1584C106.966 11.0451 107.029 10.8914 107.029 10.7312C107.029 10.571 106.966 10.4173 106.852 10.304C106.739 10.1907 106.586 10.127 106.425 10.127C106.265 10.127 106.111 10.1907 105.998 10.304C105.885 10.4173 105.821 10.571 105.821 10.7312Z" fill="#283593"/>
<path d="M108.104 9.93914C108.104 10.0994 108.167 10.253 108.281 10.3664C108.394 10.4797 108.548 10.5433 108.708 10.5433C108.868 10.5433 109.022 10.4797 109.135 10.3664C109.248 10.253 109.312 10.0994 109.312 9.93914C109.312 9.77891 109.248 9.62524 109.135 9.51193C109.022 9.39863 108.868 9.33498 108.708 9.33498C108.548 9.33498 108.394 9.39863 108.281 9.51193C108.167 9.62524 108.104 9.77891 108.104 9.93914Z" fill="#283593"/>
<path d="M111.561 8.94772C111.614 9.09907 111.605 9.26515 111.535 9.40955C111.466 9.55396 111.342 9.66489 111.19 9.71803C111.039 9.77012 110.872 9.76002 110.728 9.68995C110.584 9.61987 110.473 9.49552 110.42 9.34405C110.368 9.19269 110.378 9.02685 110.448 8.88274C110.517 8.73864 110.641 8.62799 110.792 8.57494C110.944 8.52267 111.11 8.53255 111.254 8.60242C111.398 8.6723 111.509 8.79646 111.561 8.94772Z" fill="#283593"/>
<path d="M112.671 8.35382C112.671 8.43316 112.686 8.51172 112.717 8.58502C112.747 8.65832 112.791 8.72492 112.847 8.78103C112.904 8.83713 112.97 8.88163 113.043 8.91199C113.117 8.94235 113.195 8.95798 113.275 8.95798C113.354 8.95798 113.433 8.94235 113.506 8.91199C113.579 8.88163 113.646 8.83713 113.702 8.78103C113.758 8.72492 113.803 8.65832 113.833 8.58502C113.863 8.51172 113.879 8.43316 113.879 8.35382C113.879 8.27448 113.863 8.19591 113.833 8.12261C113.803 8.04931 113.758 7.98271 113.702 7.92661C113.646 7.8705 113.579 7.826 113.506 7.79564C113.433 7.76528 113.354 7.74965 113.275 7.74965C113.195 7.74965 113.117 7.76528 113.043 7.79564C112.97 7.826 112.904 7.8705 112.847 7.92661C112.791 7.98271 112.747 8.04931 112.717 8.12261C112.686 8.19591 112.671 8.27448 112.671 8.35382Z" fill="#283593"/>
<path d="M11.776 57C11.0933 57 10.592 56.648 10.272 55.944L0.896 34.504C0.597333 33.7787 0.565333 33.1813 0.8 32.712C1.03467 32.2427 1.48267 32.008 2.144 32.008C2.89067 32.008 3.40267 32.3387 3.68 33L11.904 52.744H11.552L19.936 33C20.1067 32.616 20.2987 32.36 20.512 32.232C20.7467 32.0827 21.056 32.008 21.44 32.008C22.08 32.008 22.5173 32.2427 22.752 32.712C23.008 33.16 23.008 33.6613 22.752 34.216L13.28 55.944C13.1307 56.2853 12.928 56.552 12.672 56.744C12.4373 56.9147 12.1387 57 11.776 57ZM33.712 57.32C31.8347 57.32 30.1173 57.0107 28.56 56.392C27.0027 55.752 25.6587 54.8667 24.528 53.736C23.4187 52.584 22.5547 51.2293 21.936 49.672C21.3173 48.0933 21.008 46.3653 21.008 44.488C21.008 42.6107 21.3173 40.8933 21.936 39.336C22.5547 37.7787 23.4187 36.4347 24.528 35.304C25.6587 34.152 27.0027 33.2667 28.56 32.648C30.1173 32.008 31.8347 31.688 33.712 31.688C35.5893 31.688 37.296 32.008 38.832 32.648C40.3893 33.2667 41.7333 34.152 42.864 35.304C43.9947 36.4347 44.8693 37.7787 45.488 39.336C46.1067 40.8933 46.416 42.6107 46.416 44.488C46.416 46.3653 46.1067 48.0933 45.488 49.672C44.8693 51.2293 43.9947 52.584 42.864 53.736C41.7333 54.8667 40.3893 55.752 38.832 56.392C37.296 57.0107 35.5893 57.32 33.712 57.32ZM33.712 54.312C35.0987 54.312 36.368 54.0667 37.52 53.576C38.6933 53.064 39.7067 52.3707 40.56 51.496C41.4133 50.6 42.064 49.5547 42.512 48.36C42.9813 47.1653 43.216 45.8747 43.216 44.488C43.216 43.1013 42.9813 41.8107 42.512 40.616C42.064 39.4213 41.4133 38.3867 40.56 37.512C39.7067 36.616 38.6933 35.9227 37.52 35.432C36.368 34.9413 35.0987 34.696 33.712 34.696C32.3253 34.696 31.0453 34.9413 29.872 35.432C28.72 35.9227 27.7173 36.616 26.864 37.512C26.032 38.3867 25.3813 39.4213 24.912 40.616C24.4427 41.8107 24.208 43.1013 24.208 44.488C24.208 45.8747 24.4427 47.1653 24.912 48.36C25.3813 49.5547 26.032 50.6 26.864 51.496C27.7173 52.3707 28.72 53.064 29.872 53.576C31.0453 54.0667 32.3253 54.312 33.712 54.312ZM54.7955 57C54.3475 57 53.9635 56.84 53.6435 56.52C53.3235 56.2 53.1635 55.8053 53.1635 55.336V47.88L44.6195 34.6C44.3422 34.152 44.2355 33.736 44.2995 33.352C44.3635 32.9467 44.5448 32.6267 44.8435 32.392C45.1635 32.136 45.5262 32.008 45.9315 32.008C46.2942 32.008 46.5822 32.0933 46.7955 32.264C47.0088 32.4133 47.2115 32.6373 47.4035 32.936L55.5315 45.832H54.2515L62.5075 32.808C62.6782 32.552 62.8808 32.36 63.1155 32.232C63.3502 32.0827 63.6382 32.008 63.9795 32.008C64.3635 32.008 64.6835 32.1467 64.9395 32.424C65.1955 32.68 65.3448 33.0107 65.3875 33.416C65.4302 33.8 65.3235 34.1947 65.0675 34.6L56.4595 47.88V55.336C56.4595 55.8053 56.2995 56.2 55.9795 56.52C55.6595 56.84 55.2648 57 54.7955 57ZM61.5255 57C60.9282 57 60.4695 56.744 60.1495 56.232C59.8295 55.72 59.7975 55.176 60.0535 54.6L69.0455 33.128C69.3655 32.3813 69.8882 32.008 70.6135 32.008C71.3815 32.008 71.9042 32.3813 72.1815 33.128L81.2055 54.664C81.4402 55.2613 81.3975 55.8053 81.0775 56.296C80.7788 56.7653 80.3202 57 79.7015 57C79.3815 57 79.0722 56.9147 78.7735 56.744C78.4962 56.552 78.2935 56.296 78.1655 55.976L70.2295 36.264H71.1255L63.0615 55.976C62.9122 56.3173 62.6882 56.5733 62.3895 56.744C62.1122 56.9147 61.8242 57 61.5255 57ZM63.2215 51.496L64.5015 48.744H77.0455L78.3255 51.496H63.2215ZM92.5525 57.32C90.8245 57.32 89.2032 57 87.6885 56.36C86.1952 55.6987 84.8832 54.792 83.7525 53.64C82.6432 52.4667 81.7685 51.1013 81.1285 49.544C80.5098 47.9867 80.2005 46.3013 80.2005 44.488C80.2005 42.696 80.5098 41.032 81.1285 39.496C81.7685 37.9387 82.6432 36.584 83.7525 35.432C84.8832 34.2587 86.1952 33.3413 87.6885 32.68C89.1818 32.0187 90.8032 31.688 92.5525 31.688C94.1952 31.688 95.6032 31.9013 96.7765 32.328C97.9712 32.7547 99.1658 33.4587 100.36 34.44C100.531 34.568 100.659 34.7067 100.744 34.856C100.851 34.984 100.915 35.1227 100.936 35.272C100.979 35.4 101 35.56 101 35.752C101 36.1573 100.851 36.4987 100.552 36.776C100.275 37.0533 99.9232 37.2027 99.4965 37.224C99.0912 37.2453 98.7072 37.1067 98.3445 36.808C97.5552 36.1253 96.7338 35.6027 95.8805 35.24C95.0485 34.8773 93.9392 34.696 92.5525 34.696C91.2938 34.696 90.1098 34.952 89.0005 35.464C87.8912 35.976 86.9098 36.68 86.0565 37.576C85.2245 38.472 84.5738 39.5173 84.1045 40.712C83.6352 41.8853 83.4005 43.144 83.4005 44.488C83.4005 45.8533 83.6352 47.1333 84.1045 48.328C84.5738 49.5013 85.2245 50.536 86.0565 51.432C86.9098 52.328 87.8912 53.032 89.0005 53.544C90.1098 54.0347 91.2938 54.28 92.5525 54.28C93.6405 54.28 94.6645 54.0987 95.6245 53.736C96.6058 53.352 97.5445 52.8293 98.4405 52.168C98.8245 51.8907 99.1978 51.7733 99.5605 51.816C99.9445 51.8373 100.264 51.9867 100.52 52.264C100.776 52.52 100.904 52.8827 100.904 53.352C100.904 53.5653 100.862 53.7787 100.776 53.992C100.712 54.184 100.584 54.3653 100.392 54.536C99.2618 55.4747 98.0352 56.1787 96.7125 56.648C95.3898 57.096 94.0032 57.32 92.5525 57.32ZM100.904 53.352L97.7045 52.712V46.984H93.2885C92.8192 46.984 92.4245 46.8453 92.1045 46.568C91.7845 46.2907 91.6245 45.9387 91.6245 45.512C91.6245 45.0853 91.7845 44.7333 92.1045 44.456C92.4245 44.1787 92.8192 44.04 93.2885 44.04H99.2725C99.7632 44.04 100.158 44.2 100.456 44.52C100.755 44.8187 100.904 45.2133 100.904 45.704V53.352ZM104.852 57C104.382 57 103.988 56.84 103.668 56.52C103.348 56.2 103.188 55.8053 103.188 55.336V33.672C103.188 33.1813 103.348 32.7867 103.668 32.488C103.988 32.168 104.382 32.008 104.852 32.008H119.316C119.806 32.008 120.201 32.1573 120.5 32.456C120.798 32.7333 120.948 33.1067 120.948 33.576C120.948 34.024 120.798 34.3867 120.5 34.664C120.201 34.9413 119.806 35.08 119.316 35.08H106.516V42.856H115.7C116.19 42.856 116.585 43.0053 116.884 43.304C117.182 43.5813 117.332 43.944 117.332 44.392C117.332 44.84 117.182 45.2133 116.884 45.512C116.585 45.7893 116.19 45.928 115.7 45.928H106.516V53.928H119.316C119.806 53.928 120.201 54.0667 120.5 54.344C120.798 54.6213 120.948 54.984 120.948 55.432C120.948 55.9013 120.798 56.2853 120.5 56.584C120.201 56.8613 119.806 57 119.316 57H104.852Z" fill="#555B6E"/>
</svg>
