<svg width="214" height="213" viewBox="0 0 214 213" fill="none" xmlns="http://www.w3.org/2000/svg">
<g clip-path="url(#clip0_3_735)">
<path d="M92.9553 80.3642L67.9112 11.5586L86.6752 4.72925L130.483 66.7023L92.9553 80.3642Z" fill="#555B6E"/>
<path d="M16.475 94.0328L166.83 39.3085C168.705 38.6257 170.711 38.3735 172.697 38.5706C174.683 38.7676 176.6 39.4088 178.305 40.4467L191.042 48.2045C194.359 46.9967 198.021 47.1562 201.221 48.6479C204.421 50.1396 206.897 52.8413 208.105 56.1588C209.312 59.4763 209.151 63.1373 207.659 66.3365C206.167 69.5358 203.465 72.0113 200.148 73.2187L93.8173 111.925L23.301 112.8L16.475 94.0328Z" fill="#555B6E"/>
<path d="M16.4717 94.0328L5.08948 62.7584L17.5966 58.2056L41.4892 84.9271L16.4717 94.0328Z" fill="#555B6E"/>
<path d="M97.5082 92.8713L122.549 161.677L141.313 154.848L135.036 79.2127L97.5082 92.8713Z" fill="#555B6E"/>
<path d="M17.1406 206.344C20.8168 206.344 23.7969 203.364 23.7969 199.688C23.7969 196.011 20.8168 193.031 17.1406 193.031C13.4645 193.031 10.4844 196.011 10.4844 199.688C10.4844 203.364 13.4645 206.344 17.1406 206.344Z" fill="#EFBC2E"/>
<path d="M93.6875 149.766C97.3636 149.766 100.344 146.786 100.344 143.109C100.344 139.433 97.3636 136.453 93.6875 136.453C90.0114 136.453 87.0312 139.433 87.0312 143.109C87.0312 146.786 90.0114 149.766 93.6875 149.766Z" fill="#EFBC2E"/>
<path d="M211.227 54.9906C209.768 51.1523 206.961 47.9773 203.33 46.0604C199.699 44.1435 195.493 43.616 191.501 44.5769L180.042 37.5878C177.91 36.2963 175.515 35.4991 173.034 35.2549C170.553 35.0107 168.048 35.3257 165.705 36.1767L123.797 51.4262L89.3809 2.80226C88.9594 2.20678 88.3539 1.76631 87.6575 1.54863C86.9612 1.33094 86.2126 1.34811 85.527 1.59748L66.7896 8.42346C66.3785 8.57219 66.0007 8.80046 65.6779 9.09524C65.355 9.39001 65.0934 9.74551 64.9079 10.1414C64.7225 10.5373 64.6169 10.9659 64.5971 11.4026C64.5773 11.8394 64.6438 12.2758 64.7927 12.6868L84.1225 65.8602L42.4544 81.0199L20.0794 55.989C19.6371 55.4962 19.0579 55.1465 18.4159 54.9847C17.7738 54.8228 17.098 54.8562 16.475 55.0804L3.95129 59.6333C3.54018 59.7821 3.1624 60.0103 2.83953 60.3051C2.51666 60.5999 2.25503 60.9554 2.06959 61.3513C1.88415 61.7472 1.77853 62.1758 1.75877 62.6125C1.73901 63.0493 1.80549 63.4856 1.95442 63.8967L20.1692 113.928C20.4029 114.57 20.8284 115.125 21.3881 115.517C21.9478 115.908 22.6145 116.118 23.2977 116.118H23.3376L93.8639 115.253C94.2388 115.247 94.61 115.178 94.9622 115.05L101.209 112.77L119.421 162.812C119.569 163.223 119.798 163.601 120.093 163.925C120.388 164.248 120.744 164.51 121.14 164.695C121.536 164.881 121.965 164.986 122.402 165.006C122.839 165.025 123.276 164.958 123.687 164.809L142.451 157.976C143.137 157.727 143.722 157.259 144.116 156.644C144.51 156.029 144.691 155.302 144.631 154.575L139.972 98.6622L201.276 76.3372C203.331 75.5888 205.219 74.4425 206.831 72.964C208.443 71.4854 209.747 69.7035 210.67 67.7202C211.593 65.737 212.115 63.5913 212.208 61.4059C212.301 59.2204 211.962 57.0382 211.21 54.9839L211.227 54.9906ZM72.1912 13.5388L85.4171 8.723L117.317 53.7858L90.386 63.5838L72.1912 13.5388ZM18.4719 89.7562L9.35284 64.7487L16.6215 62.1061L35.7249 83.4727L18.4719 89.7562ZM124.539 157.42L101.772 94.8515L132.077 83.8188L137.788 152.578L124.539 157.42ZM199.016 70.0936L139.419 91.7963L138.351 78.9398C138.309 78.4296 138.15 77.936 137.886 77.4973C137.622 77.0586 137.261 76.6866 136.83 76.4104C136.399 76.1353 135.911 75.9624 135.402 75.9047C134.894 75.847 134.38 75.9061 133.898 76.0776L96.37 89.7229C95.9585 89.8716 95.5804 90.1 95.2572 90.395C94.9341 90.69 94.6723 91.0459 94.4868 91.4421C94.3013 91.8384 94.1958 92.2674 94.1763 92.7045C94.1568 93.1416 94.2237 93.5783 94.3731 93.9896L98.926 106.497L93.2049 108.583L25.6107 109.412L20.7384 96.0097L167.968 42.4269C169.376 41.9137 170.881 41.7226 172.373 41.8677C173.865 42.0128 175.305 42.4905 176.588 43.2656L179.776 45.2126L170.005 48.767L172.278 55.0239L187.051 49.6489L189.301 51.0201C189.724 51.2785 190.199 51.4391 190.692 51.4904C191.185 51.5416 191.683 51.4822 192.15 51.3163C193.382 50.8655 194.691 50.6618 196.002 50.7169C197.313 50.772 198.601 51.0847 199.791 51.6373C200.981 52.1898 202.051 52.9714 202.939 53.9374C203.827 54.9033 204.516 56.0348 204.967 57.267C205.418 58.4993 205.621 59.8083 205.566 61.1193C205.511 62.4303 205.198 63.7176 204.646 64.9078C204.093 66.0979 203.312 67.1675 202.346 68.0556C201.38 68.9437 200.248 69.6328 199.016 70.0836V70.0936Z" fill="#3A4249"/>
<path d="M154.362 54.4712L148.109 56.7454L150.385 63.0007L156.637 60.7265L154.362 54.4712Z" fill="#3A4249"/>
<path d="M141.851 59.0225L135.599 61.2966L137.874 67.5519L144.127 65.2778L141.851 59.0225Z" fill="#3A4249"/>
<path d="M129.345 63.5791L123.093 65.8532L125.368 72.1085L131.621 69.8344L129.345 63.5791Z" fill="#3A4249"/>
<path d="M116.835 68.1303L110.583 70.4044L112.858 76.6597L119.11 74.3856L116.835 68.1303Z" fill="#3A4249"/>
<path d="M104.325 72.6849L98.0725 74.959L100.348 81.2143L106.6 78.9402L104.325 72.6849Z" fill="#3A4249"/>
<path d="M91.8144 77.2395L85.5622 79.5136L87.8375 85.7689L94.0896 83.4948L91.8144 77.2395Z" fill="#3A4249"/>
<path d="M79.3041 81.7907L73.0519 84.0648L75.3272 90.3201L81.5794 88.046L79.3041 81.7907Z" fill="#3A4249"/>
<path d="M66.7968 86.3406L60.5425 88.6187L62.8206 94.8729L69.0749 92.5948L66.7968 86.3406Z" fill="#3A4249"/>
<path d="M54.2871 90.8965L48.0328 93.1746L50.3109 99.4288L56.5652 97.1507L54.2871 90.8965Z" fill="#3A4249"/>
<path d="M63.7344 146.438H84.3155C85.1006 148.658 86.6454 150.53 88.6769 151.721C90.7085 152.913 93.0959 153.348 95.4172 152.95C97.7386 152.552 99.8444 151.346 101.363 149.545C102.881 147.744 103.713 145.465 103.713 143.109C103.713 140.754 102.881 138.475 101.363 136.674C99.8444 134.873 97.7386 133.667 95.4172 133.269C93.0959 132.871 90.7085 133.306 88.6769 134.497C86.6454 135.689 85.1006 137.561 84.3155 139.781H63.7344C58.4383 139.781 53.3592 141.885 49.6143 145.63C45.8695 149.375 43.7656 154.454 43.7656 159.75C43.7656 165.046 45.8695 170.125 49.6143 173.87C53.3592 177.615 58.4383 179.719 63.7344 179.719H120.312V173.063H63.7344C60.2037 173.063 56.8176 171.66 54.321 169.163C51.8244 166.667 50.4219 163.281 50.4219 159.75C50.4219 156.219 51.8244 152.833 54.321 150.337C56.8176 147.84 60.2037 146.438 63.7344 146.438ZM93.6875 139.781C94.3457 139.781 94.9892 139.976 95.5365 140.342C96.0838 140.708 96.5104 141.228 96.7623 141.836C97.0142 142.444 97.0801 143.113 96.9517 143.759C96.8233 144.404 96.5063 144.997 96.0408 145.463C95.5754 145.928 94.9824 146.245 94.3368 146.374C93.6912 146.502 93.022 146.436 92.4139 146.184C91.8057 145.932 91.286 145.506 90.9203 144.958C90.5546 144.411 90.3594 143.768 90.3594 143.109C90.3594 142.227 90.71 141.38 91.3342 140.756C91.9583 140.132 92.8048 139.781 93.6875 139.781Z" fill="#3A4249"/>
<path d="M133.625 173.062H126.969V179.719H133.625V173.062Z" fill="#3A4249"/>
<path d="M168.57 173.062H140.281V179.719H168.57C170.777 179.719 172.893 180.595 174.454 182.156C176.014 183.716 176.891 185.832 176.891 188.039C176.891 190.246 176.014 192.362 174.454 193.922C172.893 195.483 170.777 196.359 168.57 196.359H63.7344V203.016H168.57C172.542 203.016 176.352 201.438 179.16 198.629C181.969 195.82 183.547 192.011 183.547 188.039C183.547 184.067 181.969 180.258 179.16 177.449C176.352 174.64 172.542 173.062 168.57 173.062Z" fill="#3A4249"/>
<path d="M17.1406 189.703C15.3084 189.696 13.5095 190.192 11.9408 191.139C10.3721 192.085 9.09407 193.446 8.24675 195.07C7.39943 196.695 7.01546 198.521 7.13688 200.349C7.25831 202.177 7.88044 203.937 8.93516 205.435C9.98988 206.933 11.4365 208.112 13.1166 208.843C14.7968 209.574 16.6456 209.828 18.4607 209.578C20.2758 209.329 21.9872 208.584 23.4074 207.427C24.8276 206.269 25.9019 204.743 26.5126 203.016H57.0781V196.359H26.5126C25.8268 194.419 24.5583 192.739 22.8807 191.547C21.203 190.356 19.1983 189.712 17.1406 189.703ZM17.1406 203.016C16.4824 203.016 15.8389 202.82 15.2916 202.455C14.7443 202.089 14.3177 201.569 14.0658 200.961C13.814 200.353 13.748 199.684 13.8765 199.038C14.0049 198.393 14.3219 197.8 14.7873 197.334C15.2527 196.869 15.8458 196.552 16.4914 196.423C17.1369 196.295 17.8061 196.361 18.4143 196.613C19.0224 196.865 19.5422 197.291 19.9079 197.838C20.2736 198.386 20.4688 199.029 20.4688 199.687C20.4688 200.57 20.1181 201.417 19.494 202.041C18.8698 202.665 18.0233 203.016 17.1406 203.016Z" fill="#3A4249"/>
</g>
<defs>
<clipPath id="clip0_3_735">
<rect width="213" height="213" fill="white" transform="translate(0.5)"/>
</clipPath>
</defs>
</svg>
